<svg xmlns="http://www.w3.org/2000/svg" width="330.0mm" height="474.0mm" viewBox="0 0 330.0 474.0">
<title>iteration 7 - bridge</title>
<rect width="330.0" height="474.0" fill="#FFFFFF"/>
<g id="OUTLINE" fill="#0B1F3A" stroke="#0B1F3A" stroke-width="0.4">
<path d="M 176.417 463.5 C 179.833 463 182.667 462 184.167 455.333 C 185.667 448.667 185.833 436.333 186.033 420.167 C 186.233 404 186.467 384 186.667 364 C 186.867 344 187.033 324 187.1 310 C 187.167 296 187.133 288 187.3 280.833 C 187.467 273.667 187.833 267.333 189.817 260.667 C 191.8 254 195.4 247 199.7 240.167 C 204 233.333 209 226.667 213.833 220.333 C 218.667 214 223.333 208 231 200.333 C 238.667 192.667 249.333 183.333 258.875 174 C 268.416 164.667 276.832 155.333 282.779 146.333 C 288.726 137.333 292.204 128.667 293.198 120 C 294.191 111.333 292.701 102.667 289.254 92.667 C 285.807 82.667 280.403 71.333 273.035 60.583 C 265.667 49.833 256.333 39.667 245.5 32.167 C 234.667 24.667 222.333 19.833 208.667 16.417 C 195 13 180 11 165 11 C 150 11 135 13 121.333 16.417 C 107.667 19.833 95.333 24.667 84.5 32.167 C 73.667 39.667 64.333 49.833 56.965 60.583 C 49.597 71.333 44.193 82.667 40.746 92.667 C 37.299 102.667 35.809 111.333 36.802 120 C 37.796 128.667 41.274 137.333 47.221 146.333 C 53.168 155.333 61.584 164.667 71.125 174 C 80.667 183.333 91.333 192.667 99 200.333 C 106.667 208 111.333 214 116.167 220.333 C 121 226.667 126 233.333 130.3 240.167 C 134.6 247 138.2 254 140.183 260.667 C 142.167 267.333 142.533 273.667 142.7 280.833 C 142.867 288 142.833 296 142.9 310 C 142.967 324 143.133 344 143.333 364 C 143.533 384 143.767 404 143.967 420.167 C 144.167 436.333 144.333 448.667 145.833 455.333 C 147.333 462 150.167 463 153.583 463.5 C 157 464 161 464 165 464 C 169 464 173 464 176.417 463.5 Z"/>
</g>
<g id="BRIDGE_CUTOUTS" fill="#C8102E" stroke="none">
<path d="M 224.643 224.322 L 224.62 224.32 L 224.575 224.315 L 224.526 224.31 L 224.457 224.304 L 224.414 224.299 L 224.366 224.294 L 224.31 224.289 L 224.248 224.283 L 224.178 224.276 L 224.101 224.268 L 224.016 224.26 L 223.922 224.25 L 223.819 224.24 L 223.706 224.229 L 223.584 224.217 L 223.452 224.204 L 223.31 224.189 L 223.156 224.174 L 222.991 224.158 L 222.814 224.14 L 222.625 224.121 L 222.423 224.101 L 222.208 224.08 L 221.98 224.057 L 221.738 224.033 L 221.482 224.007 L 221.211 223.98 L 220.926 223.952 L 220.624 223.922 L 220.307 223.89 L 219.974 223.857 L 219.627 223.823 L 219.264 223.787 L 218.888 223.75 L 218.499 223.712 L 218.097 223.673 L 217.684 223.633 L 217.259 223.592 L 216.823 223.551 L 216.377 223.509 L 215.922 223.467 L 215.459 223.425 L 214.987 223.383 L 214.508 223.341 L 214.022 223.299 L 213.531 223.258 L 213.033 223.217 L 212.532 223.176 L 212.026 223.136 L 211.517 223.097 L 211.005 223.059 L 210.491 223.022 L 209.976 222.986 L 209.46 222.952 L 208.945 222.919 L 208.43 222.887 L 207.916 222.858 L 207.405 222.83 L 206.897 222.804 L 206.392 222.78 L 205.892 222.759 L 205.397 222.739 L 204.908 222.722 L 204.425 222.708 L 203.95 222.696 L 203.483 222.687 L 203.024 222.681 L 202.576 222.678 L 202.138 222.678 L 201.712 222.682 L 201.297 222.688 L 200.894 222.698 L 200.501 222.71 L 200.119 222.726 L 199.747 222.745 L 199.386 222.767 L 199.035 222.791 L 198.694 222.819 L 198.364 222.849 L 198.043 222.882 L 197.731 222.917 L 197.429 222.955 L 197.137 222.996 L 196.854 223.039 L 196.579 223.084 L 196.313 223.131 L 196.056 223.181 L 195.808 223.232 L 195.567 223.286 L 195.335 223.341 L 195.11 223.398 L 194.892 223.457 L 194.682 223.518 L 194.478 223.58 L 194.282 223.644 L 194.091 223.709 L 193.907 223.776 L 193.729 223.845 L 193.555 223.914 L 193.387 223.985 L 193.224 224.058 L 193.065 224.132 L 192.91 224.208 L 192.759 224.285 L 192.612 224.364 L 192.467 224.445 L 192.326 224.527 L 192.186 224.612 L 192.049 224.698 L 191.913 224.787 L 191.78 224.877 L 191.65 224.969 L 191.522 225.063 L 191.397 225.157 L 191.274 225.254 L 191.154 225.351 L 191.036 225.45 L 190.921 225.551 L 190.808 225.653 L 190.698 225.756 L 190.589 225.861 L 190.483 225.967 L 190.379 226.075 L 190.277 226.185 L 190.177 226.296 L 190.079 226.409 L 189.983 226.524 L 189.889 226.64 L 189.796 226.758 L 189.706 226.878 L 189.617 227 L 189.53 227.124 L 189.445 227.249 L 189.362 227.377 L 189.281 227.506 L 189.201 227.637 L 189.123 227.771 L 189.046 227.906 L 188.971 228.044 L 188.898 228.184 L 188.827 228.325 L 188.757 228.469 L 188.689 228.616 L 188.623 228.764 L 188.558 228.915 L 188.495 229.067 L 188.434 229.223 L 188.375 229.38 L 188.317 229.54 L 188.261 229.702 L 188.206 229.867 L 188.153 230.036 L 188.101 230.208 L 188.05 230.383 L 188.001 230.56 L 187.953 230.741 L 187.907 230.923 L 187.863 231.108 L 187.819 231.294 L 187.778 231.481 L 187.738 231.67 L 187.699 231.86 L 187.662 232.05 L 187.626 232.241 L 187.592 232.432 L 187.559 232.623 L 187.528 232.813 L 187.498 233.003 L 187.469 233.193 L 187.442 233.381 L 187.416 233.568 L 187.391 233.753 L 187.368 233.937 L 187.346 234.119 L 187.324 234.299 L 187.304 234.476 L 187.286 234.651 L 187.268 234.823 L 187.251 234.992 L 187.235 235.158 L 187.219 235.321 L 187.205 235.481 L 187.192 235.636 L 187.179 235.788 L 187.167 235.936 L 187.155 236.08 L 187.144 236.22 L 187.134 236.356 L 187.124 236.487 L 187.114 236.614 L 187.105 236.736 L 187.097 236.852 L 187.088 236.961 L 187.081 237.065 L 187.073 237.164 L 187.066 237.257 L 187.06 237.345 L 187.053 237.427 L 187.048 237.505 L 187.042 237.577 L 187.037 237.645 L 187.032 237.709 L 187.028 237.768 L 187.024 237.823 L 187.02 237.874 L 187.016 237.92 L 187.013 237.964 L 187.01 238.003 L 187.008 238.039 L 187.001 238.129 L 186.999 238.153 L 186.997 238.174 L 186.994 238.223 L 186.992 238.246 L 186.99 238.277 L 186.99 238.28 L 186.978 238.403 L 186.963 238.524 L 186.944 238.646 L 186.921 238.766 L 186.894 238.886 L 186.863 239.005 L 186.828 239.122 L 186.789 239.239 L 186.747 239.354 L 186.701 239.468 L 186.651 239.58 L 186.598 239.69 L 186.54 239.799 L 186.48 239.905 L 186.416 240.01 L 186.348 240.113 L 186.277 240.213 L 186.203 240.311 L 186.126 240.406 L 186.046 240.499 L 185.963 240.589 L 185.877 240.676 L 185.788 240.761 L 185.696 240.843 L 185.602 240.921 L 185.505 240.996 L 185.406 241.069 L 185.304 241.137 L 185.2 241.203 L 185.094 241.265 L 184.987 241.324 L 184.877 241.379 L 184.765 241.43 L 184.652 241.478 L 184.538 241.522 L 184.422 241.562 L 184.305 241.599 L 184.186 241.631 L 184.067 241.66 L 183.947 241.685 L 183.826 241.705 L 183.704 241.722 L 183.582 241.735 L 183.46 241.744 L 183.337 241.749 L 183.215 241.75 L 183.092 241.747 L 182.97 241.739 L 182.847 241.728 L 182.726 241.713 L 182.604 241.694 L 182.484 241.671 L 182.364 241.644 L 182.245 241.613 L 182.128 241.578 L 182.011 241.539 L 181.896 241.497 L 181.782 241.451 L 181.67 241.401 L 181.56 241.348 L 181.451 241.29 L 181.345 241.23 L 181.24 241.166 L 181.137 241.098 L 181.037 241.027 L 180.939 240.953 L 180.844 240.876 L 180.751 240.796 L 180.661 240.713 L 180.574 240.627 L 180.489 240.538 L 180.407 240.446 L 180.329 240.352 L 180.254 240.255 L 180.181 240.156 L 180.113 240.054 L 180.047 239.95 L 179.985 239.844 L 179.926 239.737 L 179.871 239.627 L 179.82 239.515 L 179.772 239.402 L 179.728 239.288 L 179.688 239.172 L 179.651 239.055 L 179.619 238.936 L 179.59 238.817 L 179.565 238.697 L 179.545 238.576 L 179.528 238.454 L 179.515 238.332 L 179.506 238.21 L 179.501 238.087 L 179.5 237.965 L 179.503 237.842 L 179.511 237.72 L 179.511 237.711 L 179.512 237.701 L 179.514 237.675 L 179.517 237.632 L 179.519 237.613 L 179.522 237.568 L 179.524 237.541 L 179.526 237.511 L 179.531 237.442 L 179.534 237.403 L 179.538 237.36 L 179.541 237.313 L 179.545 237.262 L 179.549 237.207 L 179.553 237.148 L 179.558 237.084 L 179.563 237.016 L 179.569 236.944 L 179.575 236.866 L 179.581 236.784 L 179.587 236.696 L 179.594 236.603 L 179.602 236.505 L 179.609 236.4 L 179.618 236.291 L 179.626 236.175 L 179.636 236.053 L 179.645 235.924 L 179.655 235.788 L 179.666 235.645 L 179.667 235.64 L 179.678 235.494 L 179.679 235.488 L 179.691 235.336 L 179.691 235.329 L 179.704 235.172 L 179.705 235.164 L 179.718 235.002 L 179.719 234.992 L 179.734 234.826 L 179.735 234.815 L 179.75 234.644 L 179.751 234.633 L 179.767 234.457 L 179.769 234.444 L 179.786 234.265 L 179.787 234.251 L 179.806 234.068 L 179.807 234.053 L 179.827 233.866 L 179.828 233.85 L 179.849 233.66 L 179.851 233.643 L 179.873 233.449 L 179.875 233.432 L 179.898 233.234 L 179.9 233.216 L 179.925 233.016 L 179.927 232.997 L 179.953 232.793 L 179.956 232.773 L 179.983 232.568 L 179.986 232.547 L 180.015 232.338 L 180.018 232.317 L 180.048 232.106 L 180.052 232.083 L 180.084 231.871 L 180.087 231.847 L 180.121 231.633 L 180.125 231.608 L 180.161 231.393 L 180.165 231.367 L 180.202 231.15 L 180.207 231.123 L 180.246 230.905 L 180.251 230.877 L 180.292 230.657 L 180.298 230.628 L 180.341 230.408 L 180.347 230.378 L 180.392 230.157 L 180.398 230.126 L 180.445 229.905 L 180.452 229.872 L 180.502 229.651 L 180.509 229.617 L 180.561 229.395 L 180.569 229.36 L 180.623 229.139 L 180.632 229.102 L 180.688 228.882 L 180.698 228.843 L 180.756 228.623 L 180.766 228.583 L 180.827 228.364 L 180.839 228.322 L 180.902 228.104 L 180.915 228.061 L 180.98 227.844 L 180.994 227.799 L 181.062 227.584 L 181.077 227.536 L 181.148 227.323 L 181.164 227.274 L 181.238 227.062 L 181.255 227.012 L 181.331 226.803 L 181.35 226.753 L 181.428 226.545 L 181.448 226.494 L 181.529 226.288 L 181.55 226.238 L 181.634 226.034 L 181.655 225.982 L 181.742 225.781 L 181.764 225.729 L 181.854 225.529 L 181.877 225.477 L 181.969 225.279 L 181.994 225.227 L 182.089 225.031 L 182.115 224.979 L 182.212 224.785 L 182.239 224.733 L 182.339 224.541 L 182.367 224.489 L 182.471 224.299 L 182.5 224.247 L 182.606 224.059 L 182.636 224.006 L 182.744 223.821 L 182.776 223.768 L 182.887 223.585 L 182.92 223.532 L 183.034 223.351 L 183.068 223.299 L 183.185 223.119 L 183.219 223.067 L 183.34 222.89 L 183.375 222.838 L 183.498 222.663 L 183.535 222.612 L 183.661 222.439 L 183.699 222.388 L 183.827 222.217 L 183.866 222.166 L 183.998 221.998 L 184.038 221.948 L 184.173 221.781 L 184.214 221.732 L 184.351 221.567 L 184.393 221.518 L 184.534 221.356 L 184.576 221.308 L 184.72 221.148 L 184.764 221.1 L 184.91 220.943 L 184.955 220.895 L 185.104 220.74 L 185.15 220.694 L 185.302 220.541 L 185.349 220.495 L 185.504 220.345 L 185.552 220.3 L 185.71 220.152 L 185.758 220.108 L 185.919 219.962 L 185.968 219.919 L 186.133 219.775 L 186.182 219.733 L 186.349 219.592 L 186.4 219.551 L 186.57 219.412 L 186.621 219.372 L 186.794 219.236 L 186.845 219.196 L 187.022 219.062 L 187.074 219.024 L 187.254 218.893 L 187.306 218.855 L 187.488 218.727 L 187.541 218.69 L 187.727 218.564 L 187.78 218.529 L 187.969 218.405 L 188.023 218.37 L 188.216 218.249 L 188.272 218.214 L 188.467 218.096 L 188.525 218.062 L 188.724 217.946 L 188.782 217.913 L 188.986 217.799 L 189.045 217.767 L 189.252 217.656 L 189.312 217.624 L 189.524 217.516 L 189.585 217.486 L 189.8 217.38 L 189.862 217.351 L 190.082 217.248 L 190.143 217.22 L 190.368 217.12 L 190.43 217.093 L 190.66 216.996 L 190.722 216.97 L 190.957 216.875 L 191.018 216.851 L 191.258 216.76 L 191.319 216.737 L 191.565 216.648 L 191.626 216.626 L 191.877 216.54 L 191.937 216.52 L 192.193 216.437 L 192.253 216.418 L 192.516 216.338 L 192.574 216.32 L 192.843 216.243 L 192.901 216.226 L 193.175 216.152 L 193.232 216.137 L 193.513 216.066 L 193.569 216.052 L 193.857 215.983 L 193.911 215.971 L 194.206 215.905 L 194.259 215.894 L 194.56 215.831 L 194.612 215.821 L 194.921 215.762 L 194.972 215.752 L 195.287 215.696 L 195.337 215.687 L 195.66 215.634 L 195.708 215.627 L 196.039 215.577 L 196.085 215.57 L 196.424 215.523 L 196.469 215.517 L 196.816 215.473 L 196.86 215.468 L 197.214 215.428 L 197.257 215.423 L 197.62 215.386 L 197.661 215.382 L 198.032 215.348 L 198.072 215.345 L 198.452 215.314 L 198.49 215.311 L 198.879 215.284 L 198.916 215.281 L 199.314 215.257 L 199.35 215.255 L 199.757 215.235 L 199.792 215.233 L 200.208 215.216 L 200.242 215.215 L 200.667 215.201 L 200.7 215.2 L 201.135 215.19 L 201.166 215.189 L 201.611 215.182 L 201.641 215.182 L 202.096 215.178 L 202.124 215.178 L 202.588 215.178 L 202.614 215.178 L 203.087 215.182 L 203.111 215.182 L 203.592 215.188 L 203.614 215.189 L 204.103 215.198 L 204.123 215.198 L 204.619 215.21 L 204.638 215.211 L 205.139 215.226 L 205.157 215.226 L 205.664 215.244 L 205.681 215.245 L 206.193 215.265 L 206.208 215.265 L 206.724 215.287 L 206.739 215.288 L 207.258 215.313 L 207.272 215.313 L 207.794 215.34 L 207.807 215.341 L 208.331 215.369 L 208.343 215.37 L 208.869 215.4 L 208.881 215.401 L 209.407 215.433 L 209.418 215.434 L 209.944 215.468 L 209.955 215.468 L 210.481 215.503 L 210.491 215.504 L 211.015 215.54 L 211.025 215.541 L 211.548 215.579 L 211.557 215.579 L 212.077 215.618 L 212.086 215.619 L 212.603 215.658 L 212.611 215.659 L 213.124 215.699 L 213.132 215.7 L 213.641 215.741 L 213.648 215.742 L 214.152 215.783 L 214.159 215.784 L 214.657 215.826 L 214.664 215.827 L 215.155 215.869 L 215.161 215.87 L 215.646 215.912 L 215.652 215.913 L 216.129 215.955 L 216.134 215.956 L 216.603 215.998 L 216.608 215.999 L 217.067 216.041 L 217.072 216.042 L 217.522 216.084 L 217.526 216.084 L 217.966 216.125 L 217.97 216.126 L 218.398 216.167 L 218.819 216.207 L 219.226 216.247 L 219.621 216.286 L 220.001 216.323 L 220.366 216.359 L 220.716 216.394 L 221.05 216.427 L 221.368 216.459 L 221.669 216.489 L 221.955 216.517 L 222.225 216.544 L 222.482 216.57 L 222.724 216.594 L 222.952 216.617 L 223.166 216.638 L 223.368 216.658 L 223.557 216.677 L 223.734 216.694 L 223.899 216.711 L 224.053 216.726 L 224.195 216.74 L 224.328 216.754 L 224.45 216.766 L 224.562 216.777 L 224.665 216.787 L 224.759 216.797 L 224.844 216.805 L 224.922 216.813 L 224.991 216.82 L 225.053 216.826 L 225.109 216.831 L 225.158 216.836 L 225.237 216.844 L 225.296 216.85 L 225.337 216.854 L 225.352 216.856 L 225.382 216.859 L 225.386 216.859 L 225.386 216.859 L 225.508 216.873 L 225.629 216.891 L 225.75 216.913 L 225.87 216.939 L 225.989 216.969 L 226.107 217.003 L 226.224 217.041 L 226.339 217.082 L 226.453 217.128 L 226.566 217.177 L 226.677 217.229 L 226.786 217.285 L 226.893 217.345 L 226.998 217.408 L 227.101 217.475 L 227.202 217.545 L 227.301 217.618 L 227.397 217.694 L 227.49 217.774 L 227.581 217.856 L 227.669 217.942 L 227.754 218.03 L 227.837 218.121 L 227.916 218.215 L 227.992 218.311 L 228.065 218.41 L 228.135 218.511 L 228.201 218.614 L 228.264 218.719 L 228.324 218.826 L 228.38 218.936 L 228.432 219.047 L 228.481 219.159 L 228.526 219.273 L 228.567 219.389 L 228.604 219.506 L 228.638 219.624 L 228.668 219.743 L 228.693 219.863 L 228.715 219.984 L 228.733 220.105 L 228.747 220.227 L 228.757 220.349 L 228.763 220.472 L 228.765 220.595 L 228.762 220.717 L 228.756 220.84 L 228.746 220.962 L 228.732 221.084 L 228.714 221.205 L 228.692 221.326 L 228.666 221.446 L 228.636 221.565 L 228.602 221.683 L 228.564 221.8 L 228.523 221.915 L 228.478 222.029 L 228.429 222.142 L 228.376 222.253 L 228.32 222.362 L 228.26 222.469 L 228.197 222.574 L 228.13 222.677 L 228.06 222.778 L 227.987 222.877 L 227.911 222.973 L 227.831 223.066 L 227.749 223.157 L 227.663 223.245 L 227.575 223.33 L 227.484 223.413 L 227.39 223.492 L 227.294 223.568 L 227.196 223.641 L 227.095 223.711 L 226.991 223.777 L 226.886 223.84 L 226.779 223.9 L 226.67 223.956 L 226.559 224.008 L 226.446 224.057 L 226.332 224.102 L 226.216 224.143 L 226.099 224.18 L 225.981 224.214 L 225.862 224.244 L 225.742 224.269 L 225.621 224.291 L 225.5 224.309 L 225.378 224.323 L 225.256 224.333 L 225.133 224.339 L 225.011 224.341 L 224.888 224.338 L 224.765 224.332 L 224.643 224.322 L 224.643 224.322 Z"/>
<path d="M 105.357 224.322 L 105.38 224.32 L 105.425 224.315 L 105.474 224.31 L 105.543 224.304 L 105.586 224.299 L 105.634 224.294 L 105.69 224.289 L 105.752 224.283 L 105.822 224.276 L 105.899 224.268 L 105.984 224.26 L 106.078 224.25 L 106.181 224.24 L 106.294 224.229 L 106.416 224.217 L 106.548 224.204 L 106.69 224.189 L 106.844 224.174 L 107.009 224.158 L 107.186 224.14 L 107.375 224.121 L 107.577 224.101 L 107.792 224.08 L 108.02 224.057 L 108.262 224.033 L 108.518 224.007 L 108.789 223.98 L 109.074 223.952 L 109.376 223.922 L 109.693 223.89 L 110.026 223.857 L 110.373 223.823 L 110.736 223.787 L 111.112 223.75 L 111.501 223.712 L 111.903 223.673 L 112.316 223.633 L 112.741 223.592 L 113.177 223.551 L 113.623 223.509 L 114.078 223.467 L 114.541 223.425 L 115.013 223.383 L 115.492 223.341 L 115.978 223.299 L 116.469 223.258 L 116.967 223.217 L 117.468 223.176 L 117.974 223.136 L 118.483 223.097 L 118.995 223.059 L 119.509 223.022 L 120.024 222.986 L 120.54 222.952 L 121.055 222.919 L 121.57 222.887 L 122.084 222.858 L 122.595 222.83 L 123.103 222.804 L 123.608 222.78 L 124.108 222.759 L 124.603 222.739 L 125.092 222.722 L 125.575 222.708 L 126.05 222.696 L 126.517 222.687 L 126.976 222.681 L 127.424 222.678 L 127.862 222.678 L 128.288 222.682 L 128.703 222.688 L 129.106 222.698 L 129.499 222.71 L 129.881 222.726 L 130.253 222.745 L 130.614 222.767 L 130.965 222.791 L 131.306 222.819 L 131.636 222.849 L 131.957 222.882 L 132.269 222.917 L 132.571 222.955 L 132.863 222.996 L 133.146 223.039 L 133.421 223.084 L 133.687 223.131 L 133.944 223.181 L 134.192 223.232 L 134.433 223.286 L 134.665 223.341 L 134.89 223.398 L 135.108 223.457 L 135.318 223.518 L 135.522 223.58 L 135.718 223.644 L 135.909 223.709 L 136.093 223.776 L 136.271 223.845 L 136.445 223.914 L 136.613 223.985 L 136.776 224.058 L 136.935 224.132 L 137.09 224.208 L 137.241 224.285 L 137.388 224.364 L 137.533 224.445 L 137.674 224.527 L 137.814 224.612 L 137.951 224.698 L 138.087 224.787 L 138.22 224.877 L 138.35 224.969 L 138.478 225.063 L 138.603 225.157 L 138.726 225.254 L 138.846 225.351 L 138.964 225.45 L 139.079 225.551 L 139.192 225.653 L 139.302 225.756 L 139.411 225.861 L 139.517 225.967 L 139.621 226.075 L 139.723 226.185 L 139.823 226.296 L 139.921 226.409 L 140.017 226.524 L 140.111 226.64 L 140.204 226.758 L 140.294 226.878 L 140.383 227 L 140.47 227.124 L 140.555 227.249 L 140.638 227.377 L 140.719 227.506 L 140.799 227.637 L 140.877 227.771 L 140.954 227.906 L 141.029 228.044 L 141.102 228.184 L 141.173 228.325 L 141.243 228.469 L 141.311 228.616 L 141.377 228.764 L 141.442 228.915 L 141.505 229.067 L 141.566 229.223 L 141.625 229.38 L 141.683 229.54 L 141.739 229.702 L 141.794 229.867 L 141.847 230.036 L 141.899 230.208 L 141.95 230.383 L 141.999 230.56 L 142.047 230.741 L 142.093 230.923 L 142.137 231.108 L 142.181 231.294 L 142.222 231.481 L 142.262 231.67 L 142.301 231.86 L 142.338 232.05 L 142.374 232.241 L 142.408 232.432 L 142.441 232.623 L 142.472 232.813 L 142.502 233.003 L 142.531 233.193 L 142.558 233.381 L 142.584 233.568 L 142.609 233.753 L 142.632 233.937 L 142.654 234.119 L 142.676 234.299 L 142.696 234.476 L 142.714 234.651 L 142.732 234.823 L 142.749 234.992 L 142.765 235.158 L 142.781 235.321 L 142.795 235.481 L 142.808 235.636 L 142.821 235.788 L 142.833 235.936 L 142.845 236.08 L 142.856 236.22 L 142.866 236.356 L 142.876 236.487 L 142.886 236.614 L 142.895 236.736 L 142.903 236.852 L 142.912 236.961 L 142.919 237.065 L 142.927 237.164 L 142.934 237.257 L 142.94 237.345 L 142.947 237.427 L 142.952 237.505 L 142.958 237.577 L 142.963 237.645 L 142.968 237.709 L 142.972 237.768 L 142.976 237.823 L 142.98 237.874 L 142.984 237.92 L 142.987 237.964 L 142.99 238.003 L 142.992 238.039 L 142.999 238.129 L 143.001 238.153 L 143.003 238.174 L 143.006 238.223 L 143.008 238.246 L 143.01 238.277 L 143.01 238.28 L 143.022 238.403 L 143.037 238.524 L 143.056 238.646 L 143.079 238.766 L 143.106 238.886 L 143.137 239.005 L 143.172 239.122 L 143.211 239.239 L 143.253 239.354 L 143.299 239.468 L 143.349 239.58 L 143.402 239.69 L 143.46 239.799 L 143.52 239.905 L 143.584 240.01 L 143.652 240.113 L 143.723 240.213 L 143.797 240.311 L 143.874 240.406 L 143.954 240.499 L 144.037 240.589 L 144.123 240.676 L 144.212 240.761 L 144.304 240.843 L 144.398 240.921 L 144.495 240.996 L 144.594 241.069 L 144.696 241.137 L 144.8 241.203 L 144.906 241.265 L 145.013 241.324 L 145.123 241.379 L 145.235 241.43 L 145.348 241.478 L 145.462 241.522 L 145.578 241.562 L 145.695 241.599 L 145.814 241.631 L 145.933 241.66 L 146.053 241.685 L 146.174 241.705 L 146.296 241.722 L 146.418 241.735 L 146.54 241.744 L 146.663 241.749 L 146.785 241.75 L 146.908 241.747 L 147.03 241.739 L 147.153 241.728 L 147.274 241.713 L 147.396 241.694 L 147.516 241.671 L 147.636 241.644 L 147.755 241.613 L 147.872 241.578 L 147.989 241.539 L 148.104 241.497 L 148.218 241.451 L 148.33 241.401 L 148.44 241.348 L 148.549 241.29 L 148.655 241.23 L 148.76 241.166 L 148.863 241.098 L 148.963 241.027 L 149.061 240.953 L 149.156 240.876 L 149.249 240.796 L 149.339 240.713 L 149.426 240.627 L 149.511 240.538 L 149.593 240.446 L 149.671 240.352 L 149.746 240.255 L 149.819 240.156 L 149.887 240.054 L 149.953 239.95 L 150.015 239.844 L 150.074 239.737 L 150.129 239.627 L 150.18 239.515 L 150.228 239.402 L 150.272 239.288 L 150.312 239.172 L 150.349 239.055 L 150.381 238.936 L 150.41 238.817 L 150.435 238.697 L 150.455 238.576 L 150.472 238.454 L 150.485 238.332 L 150.494 238.21 L 150.499 238.087 L 150.5 237.965 L 150.497 237.842 L 150.489 237.72 L 150.489 237.711 L 150.488 237.701 L 150.486 237.675 L 150.483 237.632 L 150.481 237.613 L 150.478 237.568 L 150.476 237.541 L 150.474 237.511 L 150.469 237.442 L 150.466 237.403 L 150.462 237.36 L 150.459 237.313 L 150.455 237.262 L 150.451 237.207 L 150.447 237.148 L 150.442 237.084 L 150.437 237.016 L 150.431 236.944 L 150.425 236.866 L 150.419 236.784 L 150.413 236.696 L 150.406 236.603 L 150.398 236.505 L 150.391 236.4 L 150.382 236.291 L 150.374 236.175 L 150.364 236.053 L 150.355 235.924 L 150.345 235.788 L 150.334 235.645 L 150.333 235.64 L 150.322 235.494 L 150.321 235.488 L 150.309 235.336 L 150.309 235.329 L 150.296 235.172 L 150.295 235.164 L 150.282 235.002 L 150.281 234.992 L 150.266 234.826 L 150.265 234.815 L 150.25 234.644 L 150.249 234.633 L 150.233 234.457 L 150.231 234.444 L 150.214 234.265 L 150.213 234.251 L 150.194 234.068 L 150.193 234.053 L 150.173 233.866 L 150.172 233.85 L 150.151 233.66 L 150.149 233.643 L 150.127 233.449 L 150.125 233.432 L 150.102 233.234 L 150.1 233.216 L 150.075 233.016 L 150.073 232.997 L 150.047 232.793 L 150.044 232.773 L 150.017 232.568 L 150.014 232.547 L 149.985 232.338 L 149.982 232.317 L 149.952 232.106 L 149.948 232.083 L 149.916 231.871 L 149.913 231.847 L 149.879 231.633 L 149.875 231.608 L 149.839 231.393 L 149.835 231.367 L 149.798 231.15 L 149.793 231.123 L 149.754 230.905 L 149.749 230.877 L 149.708 230.657 L 149.702 230.628 L 149.659 230.408 L 149.653 230.378 L 149.608 230.157 L 149.602 230.126 L 149.555 229.905 L 149.548 229.872 L 149.498 229.651 L 149.491 229.617 L 149.439 229.395 L 149.431 229.36 L 149.377 229.139 L 149.368 229.102 L 149.312 228.882 L 149.302 228.843 L 149.244 228.623 L 149.234 228.583 L 149.173 228.364 L 149.161 228.322 L 149.098 228.104 L 149.085 228.061 L 149.02 227.844 L 149.006 227.799 L 148.938 227.584 L 148.923 227.536 L 148.852 227.323 L 148.836 227.274 L 148.762 227.062 L 148.745 227.012 L 148.669 226.803 L 148.65 226.753 L 148.572 226.545 L 148.552 226.494 L 148.471 226.288 L 148.45 226.238 L 148.366 226.034 L 148.345 225.982 L 148.258 225.781 L 148.236 225.729 L 148.146 225.529 L 148.123 225.477 L 148.031 225.279 L 148.006 225.227 L 147.911 225.031 L 147.885 224.979 L 147.788 224.785 L 147.761 224.733 L 147.661 224.541 L 147.633 224.489 L 147.529 224.299 L 147.5 224.247 L 147.394 224.059 L 147.364 224.006 L 147.256 223.821 L 147.224 223.768 L 147.113 223.585 L 147.08 223.532 L 146.966 223.351 L 146.932 223.299 L 146.815 223.119 L 146.781 223.067 L 146.66 222.89 L 146.625 222.838 L 146.502 222.663 L 146.465 222.612 L 146.339 222.439 L 146.301 222.388 L 146.173 222.217 L 146.134 222.166 L 146.002 221.998 L 145.962 221.948 L 145.827 221.781 L 145.786 221.732 L 145.649 221.567 L 145.607 221.518 L 145.466 221.356 L 145.424 221.308 L 145.28 221.148 L 145.236 221.1 L 145.09 220.943 L 145.045 220.895 L 144.896 220.74 L 144.85 220.694 L 144.698 220.541 L 144.651 220.495 L 144.496 220.345 L 144.448 220.3 L 144.29 220.152 L 144.242 220.108 L 144.081 219.962 L 144.032 219.919 L 143.867 219.775 L 143.818 219.733 L 143.651 219.592 L 143.6 219.551 L 143.43 219.412 L 143.379 219.372 L 143.206 219.236 L 143.155 219.196 L 142.978 219.062 L 142.926 219.024 L 142.746 218.893 L 142.694 218.855 L 142.512 218.727 L 142.459 218.69 L 142.273 218.564 L 142.22 218.529 L 142.031 218.405 L 141.977 218.37 L 141.784 218.249 L 141.728 218.214 L 141.533 218.096 L 141.475 218.062 L 141.276 217.946 L 141.218 217.913 L 141.014 217.799 L 140.955 217.767 L 140.748 217.656 L 140.688 217.624 L 140.476 217.516 L 140.415 217.486 L 140.2 217.38 L 140.138 217.351 L 139.918 217.248 L 139.857 217.22 L 139.632 217.12 L 139.57 217.093 L 139.34 216.996 L 139.278 216.97 L 139.043 216.875 L 138.982 216.851 L 138.742 216.76 L 138.681 216.737 L 138.435 216.648 L 138.374 216.626 L 138.123 216.54 L 138.063 216.52 L 137.807 216.437 L 137.747 216.418 L 137.484 216.338 L 137.426 216.32 L 137.157 216.243 L 137.099 216.226 L 136.825 216.152 L 136.768 216.137 L 136.487 216.066 L 136.431 216.052 L 136.143 215.983 L 136.089 215.971 L 135.794 215.905 L 135.741 215.894 L 135.44 215.831 L 135.388 215.821 L 135.079 215.762 L 135.028 215.752 L 134.713 215.696 L 134.663 215.687 L 134.34 215.634 L 134.292 215.627 L 133.961 215.577 L 133.915 215.57 L 133.576 215.523 L 133.531 215.517 L 133.184 215.473 L 133.14 215.468 L 132.786 215.428 L 132.743 215.423 L 132.38 215.386 L 132.339 215.382 L 131.968 215.348 L 131.928 215.345 L 131.548 215.314 L 131.51 215.311 L 131.121 215.284 L 131.084 215.281 L 130.686 215.257 L 130.65 215.255 L 130.243 215.235 L 130.208 215.233 L 129.792 215.216 L 129.758 215.215 L 129.333 215.201 L 129.3 215.2 L 128.865 215.19 L 128.834 215.189 L 128.389 215.182 L 128.359 215.182 L 127.904 215.178 L 127.876 215.178 L 127.412 215.178 L 127.386 215.178 L 126.913 215.182 L 126.889 215.182 L 126.408 215.188 L 126.386 215.189 L 125.897 215.198 L 125.877 215.198 L 125.381 215.21 L 125.362 215.211 L 124.861 215.226 L 124.843 215.226 L 124.336 215.244 L 124.319 215.245 L 123.807 215.265 L 123.792 215.265 L 123.276 215.287 L 123.261 215.288 L 122.742 215.313 L 122.728 215.313 L 122.206 215.34 L 122.193 215.341 L 121.669 215.369 L 121.657 215.37 L 121.131 215.4 L 121.119 215.401 L 120.593 215.433 L 120.582 215.434 L 120.056 215.468 L 120.045 215.468 L 119.519 215.503 L 119.509 215.504 L 118.985 215.54 L 118.975 215.541 L 118.452 215.579 L 118.443 215.579 L 117.923 215.618 L 117.914 215.619 L 117.397 215.658 L 117.389 215.659 L 116.876 215.699 L 116.868 215.7 L 116.359 215.741 L 116.352 215.742 L 115.848 215.783 L 115.841 215.784 L 115.343 215.826 L 115.336 215.827 L 114.845 215.869 L 114.839 215.87 L 114.354 215.912 L 114.348 215.913 L 113.871 215.955 L 113.866 215.956 L 113.397 215.998 L 113.392 215.999 L 112.933 216.041 L 112.928 216.042 L 112.478 216.084 L 112.474 216.084 L 112.034 216.125 L 112.03 216.126 L 111.602 216.167 L 111.181 216.207 L 110.774 216.247 L 110.379 216.286 L 109.999 216.323 L 109.634 216.359 L 109.284 216.394 L 108.95 216.427 L 108.632 216.459 L 108.331 216.489 L 108.045 216.517 L 107.775 216.544 L 107.518 216.57 L 107.276 216.594 L 107.048 216.617 L 106.834 216.638 L 106.632 216.658 L 106.443 216.677 L 106.266 216.694 L 106.101 216.711 L 105.947 216.726 L 105.805 216.74 L 105.672 216.754 L 105.55 216.766 L 105.438 216.777 L 105.335 216.787 L 105.241 216.797 L 105.156 216.805 L 105.078 216.813 L 105.009 216.82 L 104.947 216.826 L 104.891 216.831 L 104.842 216.836 L 104.763 216.844 L 104.704 216.85 L 104.663 216.854 L 104.648 216.856 L 104.618 216.859 L 104.614 216.859 L 104.614 216.859 L 104.492 216.873 L 104.371 216.891 L 104.25 216.913 L 104.13 216.939 L 104.011 216.969 L 103.893 217.003 L 103.776 217.041 L 103.661 217.082 L 103.547 217.128 L 103.434 217.177 L 103.323 217.229 L 103.214 217.285 L 103.107 217.345 L 103.002 217.408 L 102.899 217.475 L 102.798 217.545 L 102.699 217.618 L 102.603 217.694 L 102.51 217.774 L 102.419 217.856 L 102.331 217.942 L 102.246 218.03 L 102.163 218.121 L 102.084 218.215 L 102.008 218.311 L 101.935 218.41 L 101.865 218.511 L 101.799 218.614 L 101.736 218.719 L 101.676 218.826 L 101.62 218.936 L 101.568 219.047 L 101.519 219.159 L 101.474 219.273 L 101.433 219.389 L 101.396 219.506 L 101.362 219.624 L 101.332 219.743 L 101.307 219.863 L 101.285 219.984 L 101.267 220.105 L 101.253 220.227 L 101.243 220.349 L 101.237 220.472 L 101.235 220.595 L 101.238 220.717 L 101.244 220.84 L 101.254 220.962 L 101.268 221.084 L 101.286 221.205 L 101.308 221.326 L 101.334 221.446 L 101.364 221.565 L 101.398 221.683 L 101.436 221.8 L 101.477 221.915 L 101.522 222.029 L 101.571 222.142 L 101.624 222.253 L 101.68 222.362 L 101.74 222.469 L 101.803 222.574 L 101.87 222.677 L 101.94 222.778 L 102.013 222.877 L 102.089 222.973 L 102.169 223.066 L 102.251 223.157 L 102.337 223.245 L 102.425 223.33 L 102.516 223.413 L 102.61 223.492 L 102.706 223.568 L 102.804 223.641 L 102.905 223.711 L 103.009 223.777 L 103.114 223.84 L 103.221 223.9 L 103.33 223.956 L 103.441 224.008 L 103.554 224.057 L 103.668 224.102 L 103.784 224.143 L 103.901 224.18 L 104.019 224.214 L 104.138 224.244 L 104.258 224.269 L 104.379 224.291 L 104.5 224.309 L 104.622 224.323 L 104.744 224.333 L 104.867 224.339 L 104.989 224.341 L 105.112 224.338 L 105.235 224.332 L 105.357 224.322 L 105.357 224.322 Z"/>
</g>
<g id="CENTRELINE" stroke="#8A94A6" stroke-width="0.3" stroke-dasharray="8 3 1.5 3" fill="none"><line x1="165" y1="470" x2="165" y2="5"/></g>
<g id="DIMENSIONS" stroke="#333333" stroke-width="0.25" fill="#333333" font-family="Helvetica,Arial,sans-serif" font-size="4.2">
<line x1="13" y1="464" x2="13" y2="11"/><line x1="10.5" y1="464" x2="15.5" y2="464"/><line x1="10.5" y1="11" x2="15.5" y2="11"/><text x="15" y="237.5" transform="rotate(-90 15 237.5)" text-anchor="middle">453 (total, FIP max 455)</text>
<line x1="25" y1="464" x2="25" y2="274"/><line x1="22.5" y1="464" x2="27.5" y2="464"/><line x1="22.5" y1="274" x2="27.5" y2="274"/><text x="27" y="369" transform="rotate(-90 27 369)" text-anchor="middle">190 handle (max 200)</text>
<line x1="25" y1="274" x2="25" y2="204"/><line x1="22.5" y1="274" x2="27.5" y2="274"/><line x1="22.5" y1="204" x2="27.5" y2="204"/><text x="27" y="239" transform="rotate(-90 27 239)" text-anchor="middle">70 bridge</text>
<line x1="25" y1="204" x2="25" y2="11"/><line x1="22.5" y1="204" x2="27.5" y2="204"/><line x1="22.5" y1="11" x2="27.5" y2="11"/><text x="27" y="107.5" transform="rotate(-90 27 107.5)" text-anchor="middle">193 face</text>
<line x1="36.5" y1="2" x2="293.5" y2="2"/><line x1="36.5" y1="-0.5" x2="36.5" y2="4.5"/><line x1="293.5" y1="-0.5" x2="293.5" y2="4.5"/><text x="165" y="0.5" text-anchor="middle">257 head width (FIP max 260)</text>
<line x1="142.6" y1="468" x2="187.4" y2="468"/><line x1="142.6" y1="465.5" x2="142.6" y2="470.5"/><line x1="187.4" y1="465.5" x2="187.4" y2="470.5"/><text x="165" y="473.2" text-anchor="middle">44.8 handle at throat (max 50)</text>
</g>
</svg>